# xmcd
#
# Track frame offsets:
#	150
#	19435
#	37582
#	54602
#	76250
#	96412
#	112852
#	138162
#	153777
#	175855
#	192667
#	214837
#	238930
#	251000
#
# Disc length: 3617 seconds
#
# Revision: 1
# Processed by: cddbd v1.4PL0 Copyright (c) Steve Scherf et al.
# Submitted via: audiograbber 1.80
#
DISCID=b80e1f0e
DTITLE=Paul Norton - Let It Fly
DYEAR=1900
DGENRE=
TTITLE0=When We Were Young
TTITLE1=When The Kingdom Comes
TTITLE2=Too Far Gone
TTITLE3=Fly Away
TTITLE4=Star
TTITLE5=Lil' Red Ridin' Hood
TTITLE6=Too Many Angels
TTITLE7=Getting Away With Murder
TTITLE8=Little Miss Understood
TTITLE9=What Are We Waitin' For
TTITLE10=Lie To Me
TTITLE11=How Great It Is
TTITLE12=Nothin' She Can't Do
TTITLE13=Ain't That The Truth
EXTD=
EXTT0=
EXTT1=
EXTT2=
EXTT3=
EXTT4=
EXTT5=
EXTT6=
EXTT7=
EXTT8=
EXTT9=
EXTT10=
EXTT11=
EXTT12=
EXTT13=
PLAYORDER=
